<?xml version="1.0" encoding="UTF-8" standalone="no"?>
<!DOCTYPE svg PUBLIC "-//W3C//DTD SVG 1.1//EN" "http://www.w3.org/Graphics/SVG/1.1/DTD/svg11.dtd">
<svg width="100%" height="100%" viewBox="0 0 57 57" version="1.1"
  xmlns="http://www.w3.org/2000/svg" xmlns:xlink="http://www.w3.org/1999/xlink" xml:space="preserve"
  xmlns:serif="http://www.serif.com/" style="fill-rule:evenodd;clip-rule:evenodd;">
    <g id="Layer_1_1_">
        <g transform="matrix(0.345935,0,0,0.345935,-77.9938,18.7893)">
            <g transform="matrix(0.269179,0,0,0.269179,225.458,-54.3147)">
                <path d="M617,43.812C617,19.631 597.369,0 573.188,0L43.812,0C19.631,0 0,19.631 0,43.812L0,573.188C0,597.369 19.631,617 43.812,617L573.188,617C597.369,617 617,597.369 617,573.188L617,43.812Z" style="fill:rgb(69,124,176);"/>
            </g>
            <g transform="matrix(0.269179,0,0,0.269179,225.458,-54.3147)">
                <path d="M541.079,569.659L75.27,569.659C60.232,569.659 48,557.126 48,541.725L48,75.925C48,60.781 60.489,48 75.27,48L541.079,48C556.471,48 568.995,60.524 568.995,75.916L568.995,541.716C568.995,557.126 556.471,569.659 541.079,569.659ZM75.27,63.047C68.756,63.047 63.047,69.057 63.047,75.916L63.047,541.716C63.047,548.921 68.41,554.612 75.27,554.612L541.079,554.612C548.054,554.612 553.949,548.7 553.949,541.716L553.949,75.925C553.949,68.95 548.054,63.056 541.079,63.056L75.27,63.056L75.27,63.047Z" style="fill:white;fill-rule:nonzero;"/>
            </g>
            <g transform="matrix(0.269179,0,0,0.269179,225.458,-54.3147)">
                <path d="M561.456,541.715C561.456,552.576 552.534,562.135 541.064,562.135L75.254,562.135C64.43,562.135 55.508,553.195 55.508,541.715L55.508,75.924C55.508,65.09 64.43,55.531 75.254,55.531L541.064,55.531C551.897,55.531 561.456,64.453 561.456,75.933L561.456,541.715Z" style="fill:none;fill-rule:nonzero;stroke:white;stroke-width:2.06px;"/>
            </g>
            <g transform="matrix(0.269179,0,0,0.269179,225.458,-54.3147)">
                <rect x="169.602" y="303.43" width="284.222" height="11.479" style="fill:white;fill-rule:nonzero;"/>
            </g>
            <g transform="matrix(0.269179,0,0,0.269179,225.458,-54.3147)">
                <path d="M228.219,114.789L267.73,114.789L267.73,168.957L349.3,168.957L349.3,114.789L388.811,114.789L388.811,259.458L349.3,259.458L349.3,196.997L267.73,196.997L267.73,259.458L228.219,259.458L228.219,114.789Z" style="fill:white;fill-rule:nonzero;"/>
            </g>
            <g transform="matrix(0.269179,0,0,0.269179,225.458,-54.3147)">
                <path d="M383.078,448.095C379.891,480.596 353.126,506.733 311.704,506.733C264.545,506.733 234.594,477.401 234.594,430.898C234.594,397.76 254.986,355.062 311.704,355.062C343.567,355.062 377.342,369.72 381.803,407.319L366.509,407.319C362.048,379.907 337.194,368.427 311.066,368.427C275.379,368.427 249.888,388.156 249.888,430.898C249.888,463.398 266.457,493.359 311.066,493.359C345.479,493.359 362.685,476.179 367.783,448.139L383.078,448.139L383.078,448.095Z" style="fill:white;fill-rule:nonzero;"/>
            </g>
        </g>
    </g>
</svg>